<svg id="visual" viewBox="0 0 900 450" width="900" height="450" xmlns="http://www.w3.org/2000/svg" xmlns:xlink="http://www.w3.org/1999/xlink" version="1.1"><path d="M0 33L13.7 39C27.3 45 54.7 57 82 56.2C109.3 55.3 136.7 41.7 163.8 36.3C191 31 218 34 245.2 40C272.3 46 299.7 55 327 60.3C354.3 65.7 381.7 67.3 409 62.8C436.3 58.3 463.7 47.7 491 43.8C518.3 40 545.7 43 573 43C600.3 43 627.7 40 654.8 37.8C682 35.7 709 34.3 736.2 35.8C763.3 37.3 790.7 41.7 818 40.8C845.3 40 872.7 34 886.3 31L900 28L900 0L886.3 0C872.7 0 845.3 0 818 0C790.7 0 763.3 0 736.2 0C709 0 682 0 654.8 0C627.7 0 600.3 0 573 0C545.7 0 518.3 0 491 0C463.7 0 436.3 0 409 0C381.7 0 354.3 0 327 0C299.7 0 272.3 0 245.2 0C218 0 191 0 163.8 0C136.7 0 109.3 0 82 0C54.7 0 27.3 0 13.7 0L0 0Z" fill="#454568"></path><path d="M0 186L13.7 180.7C27.3 175.3 54.7 164.7 82 172.2C109.3 179.7 136.7 205.3 163.8 218.2C191 231 218 231 245.2 219C272.3 207 299.7 183 327 174C354.3 165 381.7 171 409 174C436.3 177 463.7 177 491 171.7C518.3 166.3 545.7 155.7 573 154.8C600.3 154 627.7 163 654.8 165.3C682 167.7 709 163.3 736.2 166.3C763.3 169.3 790.7 179.7 818 175.2C845.3 170.7 872.7 151.3 886.3 141.7L900 132L900 26L886.3 29C872.7 32 845.3 38 818 38.8C790.7 39.7 763.3 35.3 736.2 33.8C709 32.3 682 33.7 654.8 35.8C627.7 38 600.3 41 573 41C545.7 41 518.3 38 491 41.8C463.7 45.7 436.3 56.3 409 60.8C381.7 65.3 354.3 63.7 327 58.3C299.7 53 272.3 44 245.2 38C218 32 191 29 163.8 34.3C136.7 39.7 109.3 53.3 82 54.2C54.7 55 27.3 43 13.7 37L0 31Z" fill="#353554"></path><path d="M0 294L13.7 281.2C27.3 268.3 54.7 242.7 82 241.2C109.3 239.7 136.7 262.3 163.8 271.3C191 280.3 218 275.7 245.2 275.7C272.3 275.7 299.7 280.3 327 277.3C354.3 274.3 381.7 263.7 409 264.3C436.3 265 463.7 277 491 277C518.3 277 545.7 265 573 265.8C600.3 266.7 627.7 280.3 654.8 278.8C682 277.3 709 260.7 736.2 252.3C763.3 244 790.7 244 818 244.8C845.3 245.7 872.7 247.3 886.3 248.2L900 249L900 130L886.3 139.7C872.7 149.3 845.3 168.7 818 173.2C790.7 177.7 763.3 167.3 736.2 164.3C709 161.3 682 165.7 654.8 163.3C627.7 161 600.3 152 573 152.8C545.7 153.7 518.3 164.3 491 169.7C463.7 175 436.3 175 409 172C381.7 169 354.3 163 327 172C299.7 181 272.3 205 245.2 217C218 229 191 229 163.8 216.2C136.7 203.3 109.3 177.7 82 170.2C54.7 162.7 27.3 173.3 13.7 178.7L0 184Z" fill="#252541"></path><path d="M0 388L13.7 393.3C27.3 398.7 54.7 409.3 82 409.3C109.3 409.3 136.7 398.7 163.8 392.7C191 386.7 218 385.3 245.2 389.8C272.3 394.3 299.7 404.7 327 409.8C354.3 415 381.7 415 409 406.8C436.3 398.7 463.7 382.3 491 377.2C518.3 372 545.7 378 573 381C600.3 384 627.7 384 654.8 381C682 378 709 372 736.2 369.7C763.3 367.3 790.7 368.7 818 366.3C845.3 364 872.7 358 886.3 355L900 352L900 247L886.3 246.2C872.7 245.3 845.3 243.7 818 242.8C790.7 242 763.3 242 736.2 250.3C709 258.7 682 275.3 654.8 276.8C627.7 278.3 600.3 264.7 573 263.8C545.7 263 518.3 275 491 275C463.7 275 436.3 263 409 262.3C381.7 261.7 354.3 272.3 327 275.3C299.7 278.3 272.3 273.7 245.2 273.7C218 273.7 191 278.3 163.8 269.3C136.7 260.3 109.3 237.7 82 239.2C54.7 240.7 27.3 266.3 13.7 279.2L0 292Z" fill="#202138"></path><path d="M0 451L13.7 451C27.3 451 54.7 451 82 451C109.3 451 136.7 451 163.8 451C191 451 218 451 245.2 451C272.3 451 299.7 451 327 451C354.3 451 381.7 451 409 451C436.3 451 463.7 451 491 451C518.3 451 545.7 451 573 451C600.3 451 627.7 451 654.8 451C682 451 709 451 736.2 451C763.3 451 790.7 451 818 451C845.3 451 872.7 451 886.3 451L900 451L900 350L886.3 353C872.7 356 845.3 362 818 364.3C790.7 366.7 763.3 365.3 736.2 367.7C709 370 682 376 654.8 379C627.7 382 600.3 382 573 379C545.7 376 518.3 370 491 375.2C463.7 380.3 436.3 396.7 409 404.8C381.7 413 354.3 413 327 407.8C299.7 402.7 272.3 392.3 245.2 387.8C218 383.3 191 384.7 163.8 390.7C136.7 396.7 109.3 407.3 82 407.3C54.7 407.3 27.3 396.7 13.7 391.3L0 386Z" fill="#1c1d30"></path></svg>